<svg width="167" height="55" viewBox="0 0 167 55" fill="none" xmlns="http://www.w3.org/2000/svg">
<path d="M9.29684 19.312C8.33684 19.312 7.36084 18.888 6.36884 18.04L6.17684 19H2.72084L5.98484 3.736L9.53684 3.256L6.65684 16.72C7.10484 17.04 7.56084 17.2 8.02484 17.2C8.93684 17.2 9.73684 16.672 10.4248 15.616C11.1288 14.56 11.6728 13.216 12.0568 11.584C12.4408 9.952 12.6328 8.304 12.6328 6.64C12.6328 5.072 12.3208 3.928 11.6968 3.208C11.0888 2.472 10.2328 2.104 9.12884 2.104C7.92884 2.104 6.84884 2.344 5.88884 2.824C4.94484 3.288 4.20084 3.96 3.65684 4.84C3.11284 5.72 2.84084 6.752 2.84084 7.936C2.84084 8.528 2.89684 8.944 3.00884 9.184C3.12084 9.408 3.17684 9.536 3.17684 9.568C2.34484 9.568 1.70484 9.392 1.25684 9.04C0.824844 8.688 0.608844 8.12 0.608844 7.336C0.608844 6.248 1.01684 5.216 1.83284 4.24C2.64884 3.264 3.73684 2.48 5.09684 1.888C6.47284 1.296 7.95284 0.999999 9.53684 0.999999C11.7288 0.999999 13.3448 1.648 14.3848 2.944C15.4248 4.24 15.9448 5.896 15.9448 7.912C15.9448 9.736 15.6328 11.536 15.0088 13.312C14.4008 15.072 13.5848 16.512 12.5608 17.632C11.5368 18.752 10.4488 19.312 9.29684 19.312ZM19.8829 19.096C18.6989 19.096 17.7629 18.792 17.0749 18.184C16.3869 17.576 16.0429 16.616 16.0429 15.304C16.0429 14.216 16.2669 13.008 16.7149 11.68C17.1629 10.352 17.8829 9.208 18.8749 8.248C19.8669 7.272 21.1149 6.784 22.6189 6.784C24.6669 6.784 25.6909 8.064 25.6909 10.624V10.648C25.7389 10.664 25.8269 10.672 25.9549 10.672C26.4829 10.672 27.0909 10.536 27.7789 10.264C28.4669 9.976 29.0909 9.632 29.6509 9.232L29.8669 9.88C29.4029 10.376 28.7949 10.8 28.0429 11.152C27.3069 11.488 26.4989 11.728 25.6189 11.872C25.4909 13.328 25.1629 14.6 24.6349 15.688C24.1069 16.776 23.4269 17.616 22.5949 18.208C21.7629 18.8 20.8589 19.096 19.8829 19.096ZM20.8429 16.936C21.2269 16.936 21.6109 16.72 21.9949 16.288C22.3789 15.84 22.7149 15.24 23.0029 14.488C23.2909 13.72 23.4989 12.872 23.6269 11.944C23.1949 11.848 22.9789 11.512 22.9789 10.936C22.9789 10.28 23.2269 9.848 23.7229 9.64C23.6909 9.112 23.6109 8.752 23.4829 8.56C23.3549 8.352 23.1309 8.248 22.8109 8.248C22.2829 8.248 21.7709 8.632 21.2749 9.4C20.7789 10.168 20.3789 11.088 20.0749 12.16C19.7709 13.232 19.6189 14.176 19.6189 14.992C19.6189 15.76 19.7069 16.28 19.8829 16.552C20.0589 16.808 20.3789 16.936 20.8429 16.936ZM35.1818 19.144C34.3338 19.144 33.7178 18.888 33.3338 18.376C32.9498 17.864 32.7578 17.216 32.7578 16.432C32.7578 16.096 32.7978 15.72 32.8778 15.304C32.9578 14.872 33.0378 14.456 33.1178 14.056C33.2138 13.656 33.2778 13.4 33.3098 13.288C33.4378 12.728 33.5578 12.176 33.6698 11.632C33.7818 11.088 33.8378 10.648 33.8378 10.312C33.8378 9.496 33.5498 9.088 32.9738 9.088C32.5578 9.088 32.1898 9.296 31.8698 9.712C31.5498 10.112 31.2938 10.64 31.1018 11.296L29.4698 19H26.0138L28.5578 7H32.0138L31.7498 8.248C32.5498 7.352 33.4858 6.904 34.5578 6.904C35.3738 6.904 36.0218 7.128 36.5018 7.576C36.9818 8.024 37.2218 8.704 37.2218 9.616C37.2218 10.08 37.1658 10.6 37.0538 11.176C36.9418 11.736 36.7818 12.424 36.5738 13.24C36.4458 13.736 36.3258 14.224 36.2138 14.704C36.1178 15.168 36.0698 15.536 36.0698 15.808C36.0698 16.128 36.1418 16.376 36.2858 16.552C36.4298 16.728 36.6778 16.816 37.0298 16.816C37.4138 16.816 37.6778 16.768 37.8218 16.672C37.7258 17.488 37.4298 18.104 36.9338 18.52C36.4538 18.936 35.8698 19.144 35.1818 19.144ZM40.1282 6.304C40.4642 5.952 40.7282 5.624 40.9202 5.32C41.1122 5.016 41.2082 4.768 41.2082 4.576C41.2082 4.464 41.1682 4.36 41.0882 4.264C41.0242 4.168 40.9202 4.064 40.7762 3.952C40.5522 3.776 40.3762 3.592 40.2482 3.4C40.1202 3.208 40.0562 2.952 40.0562 2.632C40.0562 2.136 40.2082 1.736 40.5122 1.432C40.8162 1.112 41.2002 0.951999 41.6642 0.951999C42.1602 0.951999 42.5602 1.112 42.8642 1.432C43.1842 1.736 43.3442 2.136 43.3442 2.632C43.3442 3.256 43.0802 3.944 42.5522 4.696C42.0402 5.432 41.3522 6.088 40.4882 6.664L40.1282 6.304ZM45.799 19.144C44.983 19.144 44.375 18.896 43.975 18.4C43.591 17.904 43.399 17.248 43.399 16.432C43.399 16.016 43.447 15.592 43.543 15.16L45.079 7.96H44.287L44.479 7H45.271L45.991 3.688L49.543 3.208C49.399 3.816 49.319 4.176 49.303 4.288C49.191 4.736 48.999 5.64 48.727 7H50.167L49.975 7.96H48.535L46.999 15.16C46.919 15.512 46.879 15.792 46.879 16C46.879 16.576 47.159 16.864 47.719 16.864C48.007 16.864 48.215 16.84 48.343 16.792C48.023 17.72 47.647 18.344 47.215 18.664C46.783 18.984 46.311 19.144 45.799 19.144ZM53.2189 25C52.4669 25 51.8109 24.752 51.2509 24.256C50.6749 23.776 50.3869 23.16 50.3869 22.408C50.3869 21.72 50.5629 21.152 50.9149 20.704C51.2669 20.256 51.7229 19.896 52.2829 19.624C52.8429 19.368 53.5869 19.096 54.5149 18.808L57.4189 5.104C57.7389 3.568 58.2989 2.504 59.0989 1.912C59.9149 1.32 60.8109 1.024 61.7869 1.024C62.5389 1.024 63.1949 1.272 63.7549 1.768C64.3309 2.248 64.6189 2.864 64.6189 3.616C64.6189 3.984 64.5949 4.312 64.5469 4.6H63.4189C63.4509 4.248 63.4669 4.032 63.4669 3.952C63.4669 3.696 63.3789 3.496 63.2029 3.352C63.0269 3.208 62.8109 3.136 62.5549 3.136C62.2189 3.136 61.8909 3.288 61.5709 3.592C61.2509 3.88 61.0189 4.384 60.8749 5.104L60.4669 7H62.2189L62.0509 7.96H60.2749L57.5149 20.92C57.1949 22.472 56.6429 23.536 55.8589 24.112C55.0749 24.704 54.1949 25 53.2189 25ZM52.6669 22.864C53.3069 22.864 53.7629 22.24 54.0349 20.992L54.3469 19.6C53.4989 19.888 52.8509 20.216 52.4029 20.584C51.9389 20.968 51.7069 21.464 51.7069 22.072C51.7069 22.264 51.8029 22.44 51.9949 22.6C52.1869 22.776 52.4109 22.864 52.6669 22.864ZM65.2813 19.096C64.0973 19.096 63.1613 18.792 62.4733 18.184C61.7853 17.576 61.4413 16.616 61.4413 15.304C61.4413 14.216 61.6653 13.008 62.1133 11.68C62.5613 10.352 63.2813 9.208 64.2733 8.248C65.2653 7.272 66.5133 6.784 68.0173 6.784C70.0653 6.784 71.0893 8.064 71.0893 10.624V10.648C71.1373 10.664 71.2253 10.672 71.3533 10.672C71.8813 10.672 72.4893 10.536 73.1773 10.264C73.8653 9.976 74.4893 9.632 75.0493 9.232L75.2653 9.88C74.8013 10.376 74.1933 10.8 73.4413 11.152C72.7053 11.488 71.8973 11.728 71.0173 11.872C70.8893 13.328 70.5613 14.6 70.0333 15.688C69.5053 16.776 68.8253 17.616 67.9933 18.208C67.1613 18.8 66.2573 19.096 65.2813 19.096ZM66.2413 16.936C66.6253 16.936 67.0093 16.72 67.3933 16.288C67.7773 15.84 68.1133 15.24 68.4013 14.488C68.6893 13.72 68.8973 12.872 69.0253 11.944C68.5933 11.848 68.3773 11.512 68.3773 10.936C68.3773 10.28 68.6253 9.848 69.1213 9.64C69.0893 9.112 69.0093 8.752 68.8813 8.56C68.7533 8.352 68.5293 8.248 68.2093 8.248C67.6813 8.248 67.1693 8.632 66.6733 9.4C66.1773 10.168 65.7773 11.088 65.4733 12.16C65.1693 13.232 65.0173 14.176 65.0173 14.992C65.0173 15.76 65.1053 16.28 65.2813 16.552C65.4573 16.808 65.7773 16.936 66.2413 16.936ZM73.9562 7H77.4122L77.1002 8.488C77.6442 8.008 78.1322 7.64 78.5642 7.384C79.0122 7.128 79.4922 7 80.0042 7C80.5162 7 80.9162 7.176 81.2042 7.528C81.5082 7.88 81.6602 8.304 81.6602 8.8C81.6602 9.264 81.5082 9.672 81.2042 10.024C80.9002 10.376 80.4762 10.552 79.9322 10.552C79.5802 10.552 79.3402 10.472 79.2122 10.312C79.1002 10.136 79.0122 9.888 78.9482 9.568C78.9002 9.36 78.8522 9.208 78.8042 9.112C78.7562 9.016 78.6682 8.968 78.5402 8.968C78.2042 8.968 77.9162 9.04 77.6762 9.184C77.4522 9.312 77.1562 9.544 76.7882 9.88L74.8682 19H71.4122L73.9562 7ZM85.5957 25C84.8277 25 84.1877 24.8 83.6757 24.4C83.1637 24 82.9077 23.424 82.9077 22.672C82.9077 21.76 83.2757 21.024 84.0117 20.464C84.7477 19.92 85.6837 19.464 86.8197 19.096L87.1077 17.824C86.2917 18.704 85.3317 19.144 84.2277 19.144C83.3157 19.144 82.5557 18.832 81.9477 18.208C81.3397 17.584 81.0357 16.608 81.0357 15.28C81.0357 14.096 81.2677 12.856 81.7317 11.56C82.2117 10.248 82.9157 9.144 83.8437 8.248C84.7877 7.336 85.9077 6.88 87.2037 6.88C87.8597 6.88 88.3477 6.992 88.6677 7.216C88.9877 7.44 89.1477 7.736 89.1477 8.104V8.248L89.4117 7H92.8677L90.4917 18.136C91.2597 17.88 91.8757 17.496 92.3397 16.984C92.8037 16.472 93.1957 15.712 93.5157 14.704H94.5237C94.0917 16.128 93.5077 17.176 92.7717 17.848C92.0357 18.504 91.2037 18.952 90.2757 19.192L89.9157 20.92C89.5957 22.472 89.0437 23.536 88.2597 24.112C87.4757 24.704 86.5877 25 85.5957 25ZM85.7877 16.816C86.1557 16.816 86.5317 16.648 86.9157 16.312C87.2997 15.976 87.5637 15.52 87.7077 14.944L88.9317 9.256C88.9317 9.064 88.8517 8.872 88.6917 8.68C88.5317 8.472 88.2837 8.368 87.9477 8.368C87.3077 8.368 86.7317 8.744 86.2197 9.496C85.7077 10.232 85.3077 11.128 85.0197 12.184C84.7317 13.224 84.5877 14.144 84.5877 14.944C84.5877 15.744 84.6997 16.256 84.9237 16.48C85.1637 16.704 85.4517 16.816 85.7877 16.816ZM85.0437 23.128C85.3157 23.128 85.5797 22.944 85.8357 22.576C86.0917 22.208 86.2917 21.68 86.4357 20.992L86.5797 20.296C85.0117 20.872 84.2277 21.552 84.2277 22.336C84.2277 22.544 84.2997 22.728 84.4437 22.888C84.5877 23.048 84.7877 23.128 85.0437 23.128ZM96.9437 19.144C95.7597 19.144 94.8397 18.84 94.1837 18.232C93.5277 17.608 93.1997 16.64 93.1997 15.328C93.1997 14.224 93.4157 13.008 93.8477 11.68C94.2797 10.352 94.9837 9.208 95.9597 8.248C96.9357 7.272 98.1757 6.784 99.6797 6.784C101.44 6.784 102.32 7.552 102.32 9.088C102.32 9.984 102.064 10.808 101.552 11.56C101.04 12.312 100.36 12.92 99.5117 13.384C98.6637 13.832 97.7597 14.088 96.7997 14.152C96.7677 14.632 96.7517 14.952 96.7517 15.112C96.7517 15.896 96.8877 16.432 97.1597 16.72C97.4317 16.992 97.8717 17.128 98.4797 17.128C99.3437 17.128 100.08 16.928 100.688 16.528C101.312 16.128 101.992 15.52 102.728 14.704H103.544C101.768 17.664 99.5677 19.144 96.9437 19.144ZM96.9917 13C97.5837 12.968 98.1437 12.76 98.6717 12.376C99.2157 11.992 99.6477 11.504 99.9677 10.912C100.304 10.32 100.472 9.696 100.472 9.04C100.472 8.384 100.272 8.056 99.8717 8.056C99.2957 8.056 98.7277 8.56 98.1677 9.568C97.6237 10.576 97.2317 11.72 96.9917 13ZM104.979 19.144C104.163 19.144 103.555 18.896 103.155 18.4C102.771 17.904 102.579 17.248 102.579 16.432C102.579 16.016 102.627 15.592 102.723 15.16L104.259 7.96H103.467L103.659 7H104.451L105.171 3.688L108.723 3.208C108.579 3.816 108.499 4.176 108.483 4.288C108.371 4.736 108.179 5.64 107.907 7H109.347L109.155 7.96H107.715L106.179 15.16C106.099 15.512 106.059 15.792 106.059 16C106.059 16.576 106.339 16.864 106.899 16.864C107.187 16.864 107.395 16.84 107.523 16.792C107.203 17.72 106.827 18.344 106.395 18.664C105.963 18.984 105.491 19.144 104.979 19.144ZM116.935 19.144C116.167 19.144 115.543 18.904 115.063 18.424C114.599 17.944 114.367 17.224 114.367 16.264C114.367 15.864 114.431 15.344 114.559 14.704L115.999 7.96H115.207L115.399 7H116.191L116.911 3.688L120.463 3.208L119.647 7H121.087L120.895 7.96H119.455L117.919 15.16C117.855 15.4 117.823 15.656 117.823 15.928C117.823 16.248 117.895 16.48 118.039 16.624C118.199 16.752 118.455 16.816 118.807 16.816C119.271 16.816 119.703 16.624 120.103 16.24C120.503 15.84 120.791 15.328 120.967 14.704H121.975C121.383 16.432 120.623 17.608 119.695 18.232C118.767 18.84 117.847 19.144 116.935 19.144ZM124.461 19.096C123.277 19.096 122.341 18.792 121.653 18.184C120.965 17.576 120.621 16.616 120.621 15.304C120.621 14.2 120.837 12.992 121.269 11.68C121.701 10.352 122.405 9.208 123.381 8.248C124.357 7.272 125.605 6.784 127.125 6.784C129.013 6.784 130.029 7.864 130.173 10.024C130.525 9.944 130.837 9.752 131.109 9.448C131.381 9.128 131.637 8.768 131.877 8.368H132.645C132.213 9.232 131.829 9.912 131.493 10.408C131.157 10.888 130.717 11.28 130.173 11.584C130.077 13.088 129.765 14.408 129.237 15.544C128.725 16.68 128.053 17.56 127.221 18.184C126.389 18.792 125.469 19.096 124.461 19.096ZM125.421 16.936C126.013 16.936 126.565 16.456 127.077 15.496C127.589 14.536 127.941 13.352 128.133 11.944C127.749 11.8 127.557 11.44 127.557 10.864C127.557 10.24 127.781 9.824 128.229 9.616C128.197 9.104 128.109 8.752 127.965 8.56C127.837 8.352 127.621 8.248 127.317 8.248C126.789 8.248 126.285 8.632 125.805 9.4C125.325 10.152 124.933 11.072 124.629 12.16C124.341 13.232 124.197 14.176 124.197 14.992C124.197 15.76 124.285 16.28 124.461 16.552C124.637 16.808 124.957 16.936 125.421 16.936ZM141.287 19.144C140.103 19.144 139.183 18.84 138.527 18.232C137.871 17.608 137.543 16.64 137.543 15.328C137.543 14.224 137.759 13.008 138.191 11.68C138.623 10.352 139.327 9.208 140.303 8.248C141.279 7.272 142.519 6.784 144.023 6.784C145.783 6.784 146.663 7.552 146.663 9.088C146.663 9.984 146.407 10.808 145.895 11.56C145.383 12.312 144.703 12.92 143.855 13.384C143.007 13.832 142.103 14.088 141.143 14.152C141.111 14.632 141.095 14.952 141.095 15.112C141.095 15.896 141.231 16.432 141.503 16.72C141.775 16.992 142.215 17.128 142.823 17.128C143.687 17.128 144.423 16.928 145.031 16.528C145.655 16.128 146.335 15.52 147.071 14.704H147.887C146.111 17.664 143.911 19.144 141.287 19.144ZM141.335 13C141.927 12.968 142.487 12.76 143.015 12.376C143.559 11.992 143.991 11.504 144.311 10.912C144.647 10.32 144.815 9.696 144.815 9.04C144.815 8.384 144.615 8.056 144.215 8.056C143.639 8.056 143.071 8.56 142.511 9.568C141.967 10.576 141.575 11.72 141.335 13ZM149.946 19.144C149.034 19.144 148.274 18.832 147.666 18.208C147.058 17.584 146.754 16.608 146.754 15.28C146.754 14.096 146.986 12.856 147.45 11.56C147.93 10.248 148.634 9.144 149.562 8.248C150.506 7.336 151.626 6.88 152.922 6.88C153.578 6.88 154.066 6.992 154.386 7.216C154.706 7.44 154.866 7.736 154.866 8.104V8.272L155.13 7H158.586L156.858 15.16C156.794 15.4 156.762 15.656 156.762 15.928C156.762 16.616 157.09 16.96 157.746 16.96C158.194 16.96 158.578 16.752 158.898 16.336C159.234 15.92 159.498 15.376 159.69 14.704H160.698C160.106 16.432 159.37 17.608 158.49 18.232C157.626 18.84 156.754 19.144 155.874 19.144C155.202 19.144 154.658 18.96 154.242 18.592C153.842 18.208 153.602 17.656 153.522 16.936C153.058 17.592 152.538 18.128 151.962 18.544C151.402 18.944 150.73 19.144 149.946 19.144ZM151.506 16.816C151.906 16.816 152.298 16.632 152.682 16.264C153.082 15.88 153.354 15.36 153.498 14.704L154.65 9.28C154.65 9.072 154.57 8.872 154.41 8.68C154.25 8.472 154.002 8.368 153.666 8.368C153.026 8.368 152.45 8.744 151.938 9.496C151.426 10.232 151.026 11.128 150.738 12.184C150.45 13.224 150.306 14.144 150.306 14.944C150.306 15.744 150.418 16.256 150.642 16.48C150.882 16.704 151.17 16.816 151.506 16.816ZM161.955 19.144C161.139 19.144 160.531 18.896 160.131 18.4C159.747 17.904 159.555 17.248 159.555 16.432C159.555 16.016 159.603 15.592 159.699 15.16L161.235 7.96H160.443L160.635 7H161.427L162.147 3.688L165.699 3.208C165.555 3.816 165.475 4.176 165.459 4.288C165.347 4.736 165.155 5.64 164.883 7H166.323L166.131 7.96H164.691L163.155 15.16C163.075 15.512 163.035 15.792 163.035 16C163.035 16.576 163.315 16.864 163.875 16.864C164.163 16.864 164.371 16.84 164.499 16.792C164.179 17.72 163.803 18.344 163.371 18.664C162.939 18.984 162.467 19.144 161.955 19.144ZM37.6523 49.144C36.6763 49.144 35.9563 48.888 35.4923 48.376C35.0443 47.848 34.8203 47.2 34.8203 46.432C34.8203 46.096 34.8603 45.72 34.9403 45.304C35.0203 44.872 35.1003 44.456 35.1803 44.056C35.2763 43.656 35.3403 43.4 35.3723 43.288C35.5003 42.728 35.6203 42.176 35.7323 41.632C35.8443 41.088 35.9003 40.648 35.9003 40.312C35.9003 39.496 35.6123 39.088 35.0363 39.088C34.6203 39.088 34.2523 39.296 33.9323 39.712C33.6123 40.112 33.3563 40.64 33.1643 41.296L31.5323 49H28.0763L31.5563 32.68L35.1083 32.2L33.8123 38.248C34.6123 37.352 35.5483 36.904 36.6203 36.904C37.4363 36.904 38.0843 37.128 38.5643 37.576C39.0443 38.024 39.2843 38.704 39.2843 39.616C39.2843 40.08 39.2283 40.6 39.1163 41.176C39.0043 41.736 38.8443 42.424 38.6363 43.24C38.5083 43.736 38.3883 44.224 38.2763 44.704C38.1803 45.168 38.1323 45.536 38.1323 45.808C38.1323 46.128 38.2043 46.376 38.3483 46.552C38.4923 46.728 38.7403 46.816 39.0923 46.816C39.5723 46.816 39.9563 46.648 40.2443 46.312C40.5323 45.96 40.8203 45.424 41.1083 44.704H42.1163C41.5243 46.464 40.8363 47.648 40.0523 48.256C39.2843 48.848 38.4843 49.144 37.6523 49.144ZM44.5375 49.144C43.3535 49.144 42.4335 48.84 41.7775 48.232C41.1215 47.608 40.7935 46.64 40.7935 45.328C40.7935 44.224 41.0095 43.008 41.4415 41.68C41.8735 40.352 42.5775 39.208 43.5535 38.248C44.5295 37.272 45.7695 36.784 47.2735 36.784C49.0335 36.784 49.9135 37.552 49.9135 39.088C49.9135 39.984 49.6575 40.808 49.1455 41.56C48.6335 42.312 47.9535 42.92 47.1055 43.384C46.2575 43.832 45.3535 44.088 44.3935 44.152C44.3615 44.632 44.3455 44.952 44.3455 45.112C44.3455 45.896 44.4815 46.432 44.7535 46.72C45.0255 46.992 45.4655 47.128 46.0735 47.128C46.9375 47.128 47.6735 46.928 48.2815 46.528C48.9055 46.128 49.5855 45.52 50.3215 44.704H51.1375C49.3615 47.664 47.1615 49.144 44.5375 49.144ZM44.5855 43C45.1775 42.968 45.7375 42.76 46.2655 42.376C46.8095 41.992 47.2415 41.504 47.5615 40.912C47.8975 40.32 48.0655 39.696 48.0655 39.04C48.0655 38.384 47.8655 38.056 47.4655 38.056C46.8895 38.056 46.3215 38.56 45.7615 39.568C45.2175 40.576 44.8255 41.72 44.5855 43ZM53.1964 49.144C52.2844 49.144 51.5244 48.832 50.9164 48.208C50.3084 47.584 50.0044 46.608 50.0044 45.28C50.0044 44.096 50.2364 42.856 50.7004 41.56C51.1804 40.248 51.8844 39.144 52.8124 38.248C53.7564 37.336 54.8764 36.88 56.1724 36.88C56.8284 36.88 57.3164 36.992 57.6364 37.216C57.9564 37.44 58.1164 37.736 58.1164 38.104V38.272L58.3804 37H61.8364L60.1084 45.16C60.0444 45.4 60.0124 45.656 60.0124 45.928C60.0124 46.616 60.3404 46.96 60.9964 46.96C61.4444 46.96 61.8284 46.752 62.1484 46.336C62.4844 45.92 62.7484 45.376 62.9404 44.704H63.9484C63.3564 46.432 62.6204 47.608 61.7404 48.232C60.8764 48.84 60.0044 49.144 59.1244 49.144C58.4524 49.144 57.9084 48.96 57.4924 48.592C57.0924 48.208 56.8524 47.656 56.7724 46.936C56.3084 47.592 55.7884 48.128 55.2124 48.544C54.6524 48.944 53.9804 49.144 53.1964 49.144ZM54.7564 46.816C55.1564 46.816 55.5484 46.632 55.9324 46.264C56.3324 45.88 56.6044 45.36 56.7484 44.704L57.9004 39.28C57.9004 39.072 57.8204 38.872 57.6604 38.68C57.5004 38.472 57.2524 38.368 56.9164 38.368C56.2764 38.368 55.7004 38.744 55.1884 39.496C54.6764 40.232 54.2764 41.128 53.9884 42.184C53.7004 43.224 53.5564 44.144 53.5564 44.944C53.5564 45.744 53.6684 46.256 53.8924 46.48C54.1324 46.704 54.4204 46.816 54.7564 46.816ZM65.3252 49.144C64.5572 49.144 63.9332 48.904 63.4532 48.424C62.9892 47.944 62.7572 47.224 62.7572 46.264C62.7572 45.864 62.8212 45.344 62.9492 44.704L65.5172 32.68L69.0692 32.2L66.3092 45.16C66.2452 45.4 66.2132 45.656 66.2132 45.928C66.2132 46.248 66.2852 46.48 66.4292 46.624C66.5892 46.752 66.8452 46.816 67.1972 46.816C67.6612 46.816 68.0932 46.624 68.4932 46.24C68.8932 45.84 69.1812 45.328 69.3572 44.704H70.3652C69.7732 46.432 69.0132 47.608 68.0852 48.232C67.1572 48.84 66.2372 49.144 65.3252 49.144ZM71.7237 49.144C70.9557 49.144 70.3317 48.904 69.8517 48.424C69.3877 47.944 69.1557 47.224 69.1557 46.264C69.1557 45.864 69.2197 45.344 69.3477 44.704L70.7877 37.96H69.9957L70.1877 37H70.9797L71.6997 33.688L75.2517 33.208L74.4357 37H75.8757L75.6837 37.96H74.2437L72.7077 45.16C72.6437 45.4 72.6117 45.656 72.6117 45.928C72.6117 46.248 72.6837 46.48 72.8277 46.624C72.9877 46.752 73.2437 46.816 73.5957 46.816C74.0597 46.816 74.4917 46.624 74.8917 46.24C75.2917 45.84 75.5797 45.328 75.7557 44.704H76.7637C76.1717 46.432 75.4117 47.608 74.4837 48.232C73.5557 48.84 72.6357 49.144 71.7237 49.144ZM84.4101 49.144C83.4341 49.144 82.7141 48.888 82.2501 48.376C81.8021 47.848 81.5781 47.2 81.5781 46.432C81.5781 46.096 81.6181 45.72 81.6981 45.304C81.7781 44.872 81.8581 44.456 81.9381 44.056C82.0341 43.656 82.0981 43.4 82.1301 43.288C82.2581 42.728 82.3781 42.176 82.4901 41.632C82.6021 41.088 82.6581 40.648 82.6581 40.312C82.6581 39.496 82.3701 39.088 81.7941 39.088C81.3781 39.088 81.0101 39.296 80.6901 39.712C80.3701 40.112 80.1141 40.64 79.9221 41.296L78.2901 49H74.8341L78.3141 32.68L81.8661 32.2L80.5701 38.248C81.3701 37.352 82.3061 36.904 83.3781 36.904C84.1941 36.904 84.8421 37.128 85.3221 37.576C85.8021 38.024 86.0421 38.704 86.0421 39.616C86.0421 40.08 85.9861 40.6 85.8741 41.176C85.7621 41.736 85.6021 42.424 85.3941 43.24C85.2661 43.736 85.1461 44.224 85.0341 44.704C84.9381 45.168 84.8901 45.536 84.8901 45.808C84.8901 46.128 84.9621 46.376 85.1061 46.552C85.2501 46.728 85.4981 46.816 85.8501 46.816C86.3301 46.816 86.7141 46.648 87.0021 46.312C87.2901 45.96 87.5781 45.424 87.8661 44.704H88.8741C88.2821 46.464 87.5941 47.648 86.8101 48.256C86.0421 48.848 85.2421 49.144 84.4101 49.144ZM91.6073 55C90.8553 55 90.1913 54.752 89.6153 54.256C89.0553 53.776 88.7753 53.16 88.7753 52.408C88.7753 51.704 88.9513 51.128 89.3033 50.68C89.6553 50.232 90.1113 49.88 90.6713 49.624C91.2313 49.368 91.9833 49.096 92.9273 48.808L93.1673 47.752C92.3513 48.68 91.3753 49.144 90.2393 49.144C89.4713 49.144 88.8473 48.904 88.3673 48.424C87.9033 47.944 87.6713 47.224 87.6713 46.264C87.6713 45.864 87.7353 45.344 87.8633 44.704L89.4953 37H92.9513L91.2233 45.16C91.1753 45.352 91.1513 45.552 91.1513 45.76C91.1513 46.464 91.3913 46.816 91.8713 46.816C92.3193 46.816 92.7033 46.632 93.0233 46.264C93.3433 45.88 93.5993 45.36 93.7913 44.704L95.4233 37H98.9033L95.9753 50.92C95.6553 52.456 95.0873 53.52 94.2713 54.112C93.4713 54.704 92.5833 55 91.6073 55ZM91.0553 52.864C91.3433 52.864 91.6153 52.712 91.8713 52.408C92.1273 52.12 92.3273 51.648 92.4713 50.992L92.7593 49.576C91.9113 49.864 91.2553 50.2 90.7913 50.584C90.3273 50.968 90.0953 51.464 90.0953 52.072C90.0953 52.264 90.1913 52.44 90.3833 52.6C90.5753 52.776 90.7993 52.864 91.0553 52.864ZM101.945 55C101.193 55 100.537 54.752 99.9775 54.256C99.4015 53.776 99.1135 53.16 99.1135 52.408C99.1135 51.72 99.2895 51.152 99.6415 50.704C99.9935 50.256 100.449 49.896 101.009 49.624C101.569 49.368 102.313 49.096 103.241 48.808L106.145 35.104C106.465 33.568 107.025 32.504 107.825 31.912C108.641 31.32 109.537 31.024 110.513 31.024C111.265 31.024 111.921 31.272 112.481 31.768C113.057 32.248 113.345 32.864 113.345 33.616C113.345 33.984 113.321 34.312 113.273 34.6H112.145C112.177 34.248 112.193 34.032 112.193 33.952C112.193 33.696 112.105 33.496 111.929 33.352C111.753 33.208 111.537 33.136 111.281 33.136C110.945 33.136 110.617 33.288 110.297 33.592C109.977 33.88 109.745 34.384 109.601 35.104L109.193 37H110.945L110.777 37.96H109.001L106.241 50.92C105.921 52.472 105.369 53.536 104.585 54.112C103.801 54.704 102.921 55 101.945 55ZM101.393 52.864C102.033 52.864 102.489 52.24 102.761 50.992L103.073 49.6C102.225 49.888 101.577 50.216 101.129 50.584C100.665 50.968 100.433 51.464 100.433 52.072C100.433 52.264 100.529 52.44 100.721 52.6C100.913 52.776 101.137 52.864 101.393 52.864ZM114.008 49.096C112.824 49.096 111.888 48.792 111.2 48.184C110.512 47.576 110.168 46.616 110.168 45.304C110.168 44.216 110.392 43.008 110.84 41.68C111.288 40.352 112.008 39.208 113 38.248C113.992 37.272 115.24 36.784 116.744 36.784C118.792 36.784 119.816 38.064 119.816 40.624V40.648C119.864 40.664 119.952 40.672 120.08 40.672C120.608 40.672 121.216 40.536 121.904 40.264C122.592 39.976 123.216 39.632 123.776 39.232L123.992 39.88C123.528 40.376 122.92 40.8 122.168 41.152C121.432 41.488 120.624 41.728 119.744 41.872C119.616 43.328 119.288 44.6 118.76 45.688C118.232 46.776 117.552 47.616 116.72 48.208C115.888 48.8 114.984 49.096 114.008 49.096ZM114.968 46.936C115.352 46.936 115.736 46.72 116.12 46.288C116.504 45.84 116.84 45.24 117.128 44.488C117.416 43.72 117.624 42.872 117.752 41.944C117.32 41.848 117.104 41.512 117.104 40.936C117.104 40.28 117.352 39.848 117.848 39.64C117.816 39.112 117.736 38.752 117.608 38.56C117.48 38.352 117.256 38.248 116.936 38.248C116.408 38.248 115.896 38.632 115.4 39.4C114.904 40.168 114.504 41.088 114.2 42.16C113.896 43.232 113.744 44.176 113.744 44.992C113.744 45.76 113.832 46.28 114.008 46.552C114.184 46.808 114.504 46.936 114.968 46.936ZM124.555 49.096C123.371 49.096 122.435 48.792 121.747 48.184C121.059 47.576 120.715 46.616 120.715 45.304C120.715 44.216 120.939 43.008 121.387 41.68C121.835 40.352 122.555 39.208 123.547 38.248C124.539 37.272 125.787 36.784 127.291 36.784C129.339 36.784 130.363 38.064 130.363 40.624V40.648C130.411 40.664 130.499 40.672 130.627 40.672C131.155 40.672 131.763 40.536 132.451 40.264C133.139 39.976 133.763 39.632 134.323 39.232L134.539 39.88C134.075 40.376 133.467 40.8 132.715 41.152C131.979 41.488 131.171 41.728 130.291 41.872C130.163 43.328 129.835 44.6 129.307 45.688C128.779 46.776 128.099 47.616 127.267 48.208C126.435 48.8 125.531 49.096 124.555 49.096ZM125.515 46.936C125.899 46.936 126.283 46.72 126.667 46.288C127.051 45.84 127.387 45.24 127.675 44.488C127.963 43.72 128.171 42.872 128.299 41.944C127.867 41.848 127.651 41.512 127.651 40.936C127.651 40.28 127.899 39.848 128.395 39.64C128.363 39.112 128.283 38.752 128.155 38.56C128.027 38.352 127.803 38.248 127.483 38.248C126.955 38.248 126.443 38.632 125.947 39.4C125.451 40.168 125.051 41.088 124.747 42.16C124.443 43.232 124.291 44.176 124.291 44.992C124.291 45.76 124.379 46.28 124.555 46.552C124.731 46.808 125.051 46.936 125.515 46.936ZM134.478 49.144C133.566 49.144 132.806 48.832 132.198 48.208C131.59 47.584 131.286 46.608 131.286 45.28C131.286 44.096 131.518 42.856 131.982 41.56C132.462 40.248 133.166 39.144 134.094 38.248C135.038 37.336 136.158 36.88 137.454 36.88C138.11 36.88 138.598 36.992 138.918 37.216C139.238 37.44 139.398 37.736 139.398 38.104V38.2L140.574 32.68L144.126 32.2L141.366 45.16C141.302 45.4 141.27 45.632 141.27 45.856C141.27 46.496 141.598 46.816 142.254 46.816C142.542 46.816 142.798 46.768 143.022 46.672C142.958 47.472 142.67 48.088 142.158 48.52C141.662 48.936 141.07 49.144 140.382 49.144C139.742 49.144 139.198 48.984 138.75 48.664C138.318 48.328 138.03 47.824 137.886 47.152C136.926 48.48 135.79 49.144 134.478 49.144ZM136.038 46.816C136.39 46.816 136.742 46.664 137.094 46.36C137.462 46.056 137.734 45.632 137.91 45.088L138.006 44.704L139.182 39.208C139.038 38.648 138.71 38.368 138.198 38.368C137.558 38.368 136.982 38.744 136.47 39.496C135.958 40.232 135.558 41.128 135.27 42.184C134.982 43.224 134.838 44.144 134.838 44.944C134.838 45.744 134.95 46.256 135.174 46.48C135.414 46.704 135.702 46.816 136.038 46.816Z" fill="white"/>
</svg>
